<svg width="32" height="32" viewBox="0 0 32 32" fill="none" xmlns="http://www.w3.org/2000/svg">
<rect width="32" height="32" fill="#F9D36A"/>
<g clip-path="url(#clip0_235_18)">
<path d="M29.714 14.3762C29.6277 14.2231 29.5386 14.0648 29.4731 13.8626C29.4235 13.7098 29.3766 13.5476 29.327 13.376C29.1126 12.6347 28.8909 11.8682 28.3571 11.5082C27.5046 10.9333 26.2863 10.9194 25.8248 10.9373C24.0236 9.59243 21.9176 9.49788 21.8267 9.49438C21.7508 9.49214 21.6748 9.50794 21.6066 9.54201L19.78 10.4553C18.8871 10.3981 13.6695 10.0891 10.6187 10.4658C9.09588 10.6539 7.74883 12.0149 6.61489 14.5109C6.46843 14.8334 6.33565 15.1531 6.216 15.4612C6.21365 15.464 6.21108 15.4664 6.20878 15.4692C6.02536 15.6919 5.54526 15.901 4.98576 16.002C4.36347 16.1142 3.85018 16.0632 3.63684 15.9683C3.22603 15.7858 2.73007 15.9377 2.37313 16.3552C2.0198 16.7685 1.83041 17.4441 2.20404 18.0216C2.63683 18.6905 3.86429 19.2465 5.01272 19.2464C5.17913 19.2464 5.34396 19.2345 5.50441 19.2099L5.79469 21.5322C5.86403 22.0871 6.33801 22.5056 6.89724 22.5056H7.76583L7.77048 22.5059C7.77256 22.5059 7.77458 22.5056 7.77666 22.5056H8.25359C8.50427 22.5056 8.70749 22.3024 8.70749 22.0517C8.70749 21.8009 8.50427 21.5977 8.25359 21.5977H7.94056C7.86006 21.5139 7.77426 21.3962 7.77508 21.2972C7.77606 21.1723 7.9381 21.0371 8.03468 20.9676C8.15931 20.8779 8.5588 20.7276 8.94516 20.5822C9.46327 20.3874 10.0883 20.1521 10.7045 19.8456V20.3139C10.7045 20.6191 10.8233 20.906 11.0392 21.122L12.2899 22.3726C12.375 22.4577 12.4904 22.5055 12.6108 22.5055H14.0632C14.3139 22.5055 14.5171 22.3023 14.5171 22.0516C14.5171 21.8009 14.3139 21.5977 14.0632 21.5977H12.9484C12.9245 21.1986 13.2197 20.8909 13.6725 20.458C14.0508 20.0964 14.4419 19.7224 14.5127 19.2101C15.2382 19.2581 16.0092 19.2968 16.7465 19.2968C17.5739 19.2968 18.3582 19.248 18.987 19.1091C19.8694 20.0154 21.9331 22.3291 21.955 22.3536C22.0411 22.4502 22.1643 22.5054 22.2938 22.5054H23.7447L23.7463 22.5056L23.7489 22.5054H24.7145C24.9652 22.5054 25.1684 22.3023 25.1684 22.0515C25.1684 21.8008 24.9652 21.5976 24.7145 21.5976H24.0535L23.3015 19.7175C23.6998 19.2438 24.6336 18.0802 25.0485 17.1171C25.3102 17.1883 25.6225 17.1964 25.9992 17.1071C26.6976 16.9418 28.0408 16.6957 28.879 16.6957C29.615 16.6957 30.0001 15.9661 30.0001 15.2453C29.9998 14.8836 29.8545 14.6257 29.714 14.3762Z" fill="#D9D9D9"/>
<path d="M29.714 14.3762C29.6277 14.2231 29.5386 14.0648 29.4731 13.8626C29.4235 13.7098 29.3766 13.5476 29.327 13.376C29.1126 12.6347 28.8909 11.8682 28.3571 11.5082C27.5046 10.9333 26.2863 10.9194 25.8248 10.9373C24.0236 9.59243 21.9176 9.49788 21.8267 9.49438C21.7508 9.49214 21.6748 9.50794 21.6066 9.54201L19.78 10.4553C18.8871 10.3981 13.6695 10.0891 10.6187 10.4658C9.09588 10.6539 7.74883 12.0149 6.61489 14.5109C6.46843 14.8334 6.33565 15.1531 6.216 15.4612C6.21365 15.464 6.21108 15.4664 6.20878 15.4692C6.02536 15.6919 5.54526 15.901 4.98576 16.002C4.36347 16.1142 3.85018 16.0632 3.63684 15.9683C3.22603 15.7858 2.73007 15.9377 2.37313 16.3552C2.0198 16.7685 1.83041 17.4441 2.20404 18.0216C2.63683 18.6905 3.86429 19.2465 5.01272 19.2464C5.17913 19.2464 5.34396 19.2345 5.50441 19.2099L5.79469 21.5322C5.86403 22.0871 6.33801 22.5056 6.89724 22.5056H7.76583L7.77048 22.5059C7.77256 22.5059 7.77458 22.5056 7.77666 22.5056H8.25359C8.50427 22.5056 8.70749 22.3024 8.70749 22.0517C8.70749 21.8009 8.50427 21.5977 8.25359 21.5977H7.94056C7.86006 21.5139 7.77426 21.3962 7.77508 21.2972C7.77606 21.1723 7.9381 21.0371 8.03468 20.9676C8.15931 20.8779 8.5588 20.7276 8.94516 20.5822C9.46327 20.3874 10.0883 20.1521 10.7045 19.8456V20.3139C10.7045 20.6191 10.8233 20.906 11.0392 21.122L12.2899 22.3726C12.375 22.4577 12.4904 22.5055 12.6108 22.5055H14.0632C14.3139 22.5055 14.5171 22.3023 14.5171 22.0516C14.5171 21.8009 14.3139 21.5977 14.0632 21.5977H12.9484C12.9245 21.1986 13.2197 20.8909 13.6725 20.458C14.0508 20.0964 14.4419 19.7224 14.5127 19.2101C15.2382 19.2581 16.0092 19.2968 16.7465 19.2968C17.5739 19.2968 18.3582 19.248 18.987 19.1091C19.8694 20.0154 21.9331 22.3291 21.955 22.3536C22.0411 22.4502 22.1643 22.5054 22.2938 22.5054H23.7447L23.7463 22.5056L23.7489 22.5054H24.7145C24.9652 22.5054 25.1684 22.3023 25.1684 22.0515C25.1684 21.8008 24.9652 21.5976 24.7145 21.5976H24.0535L23.3015 19.7175C23.6998 19.2438 24.6336 18.0802 25.0485 17.1171C25.3102 17.1883 25.6225 17.1964 25.9992 17.1071C26.6976 16.9418 28.0408 16.6957 28.879 16.6957C29.615 16.6957 30.0001 15.9661 30.0001 15.2453C29.9998 14.8836 29.8545 14.6257 29.714 14.3762ZM5.39044 18.0769C5.37857 18.1286 5.37584 18.182 5.38246 18.2348L5.39164 18.3084C5.009 18.3728 4.5487 18.334 4.08342 18.1928C3.49263 18.0137 3.09653 17.73 2.9661 17.5283C2.84415 17.3399 2.94357 17.1275 2.99197 17.0449C3.09402 16.8708 3.23063 16.8007 3.27279 16.7998C3.86133 17.0587 4.91001 17.0186 5.76756 16.7355C5.52349 17.5039 5.39952 18.0374 5.39044 18.0769ZM13.0451 19.8018C12.7284 20.1045 12.3418 20.4743 12.1523 20.9512L11.6811 20.4799C11.6373 20.4361 11.6122 20.3755 11.6122 20.3137V19.3248C11.7463 19.2352 11.8768 19.1409 12.0023 19.0415C12.3104 19.047 12.8045 19.0844 13.3704 19.1273C13.4452 19.133 13.5214 19.1387 13.5983 19.1445C13.5329 19.335 13.2856 19.5718 13.0451 19.8018ZM28.8787 15.7879C27.8912 15.7879 26.4264 16.073 25.7897 16.2237C25.1338 16.379 24.9154 16.0751 24.5731 15.3445C24.5548 15.3056 24.5368 15.2673 24.5189 15.2297C24.4111 15.0033 24.1403 14.9073 23.914 15.0151C23.6876 15.1228 23.5915 15.3937 23.6993 15.62C23.7164 15.6559 23.7336 15.6926 23.7511 15.7298C23.8743 15.9929 24.0318 16.3285 24.2734 16.6098C23.887 17.6812 22.4521 19.3137 22.4376 19.3303C22.3241 19.4587 22.2927 19.6402 22.3563 19.7993L23.0756 21.5976H22.4968C21.9904 21.0313 20.2343 19.0733 19.5186 18.3551C19.3814 18.1264 19.2056 16.9764 19.6082 15.9192C19.6975 15.685 19.5799 15.4227 19.3456 15.3335C19.1113 15.2441 18.8491 15.3618 18.7599 15.5961C18.4219 16.4833 18.3839 17.5483 18.5433 18.2704C17.1494 18.5036 14.9353 18.3357 13.4391 18.2222C13.2235 18.2058 13.0232 18.1906 12.8391 18.1776C12.8977 18.0947 12.9528 18.0094 13.0037 17.9213C13.1291 17.7043 13.0548 17.4267 12.8378 17.3013C12.6209 17.176 12.3432 17.2501 12.2178 17.4672C11.5431 18.635 9.78729 19.2955 8.62552 19.7325C8.10375 19.9288 7.72673 20.0707 7.50426 20.2308C6.97785 20.6099 6.86732 21.0206 6.86732 21.2985C6.86732 21.4045 6.88389 21.5041 6.91003 21.5977H6.89724C6.79492 21.5977 6.70813 21.5211 6.69539 21.4195L6.29333 18.2027C6.73799 16.3266 8.34152 11.6617 10.7299 11.3668C13.9168 10.9733 19.7832 11.3652 19.8422 11.3692C19.9228 11.3746 20.0036 11.3584 20.076 11.3223L21.9019 10.4094C22.341 10.4476 24.0166 10.6617 25.4012 11.7565C25.4924 11.8287 25.6085 11.8629 25.7243 11.8525C25.7377 11.8511 27.0727 11.7371 27.8496 12.261C28.1104 12.4368 28.3015 13.0976 28.4551 13.6285C28.5045 13.7994 28.5557 13.9761 28.6096 14.1427C28.7032 14.4314 28.8253 14.648 28.9232 14.822C29.0373 15.0246 29.0922 15.1272 29.0922 15.2454C29.092 15.5191 28.9864 15.7879 28.8787 15.7879Z" fill="black"/>
<path d="M25.8059 12.3011C25.7717 12.2898 24.958 12.0235 24.1054 12.1849C23.9867 12.2074 23.8818 12.2762 23.814 12.3762C23.7462 12.4762 23.7211 12.5992 23.7442 12.7178C23.7634 12.8158 23.9455 13.6904 24.4464 14.2151C24.5356 14.3086 24.6551 14.3556 24.7748 14.3556C24.8874 14.3556 25.0002 14.314 25.0881 14.23C25.2694 14.057 25.2761 13.7697 25.103 13.5883C24.9704 13.4494 24.8643 13.2412 24.7862 13.0424C25.1922 13.0581 25.5125 13.1602 25.52 13.1627C25.7576 13.2411 26.0138 13.1126 26.0929 12.8752C26.1722 12.6375 26.0437 12.3804 25.8059 12.3011Z" fill="black"/>
</g>
<defs>
<clipPath id="clip0_235_18">
<rect width="28" height="28" fill="white" transform="translate(2 2)"/>
</clipPath>
</defs>
</svg>
